<?xml version="1.0" standalone="no"?>
<!DOCTYPE svg PUBLIC "-//W3C//DTD SVG 20010904//EN"
 "http://www.w3.org/TR/2001/REC-SVG-20010904/DTD/svg10.dtd">
<svg version="1.0" xmlns="http://www.w3.org/2000/svg"
 width="100.000000pt" height="100.000000pt" viewBox="0 0 100.000000 100.000000"
 preserveAspectRatio="xMidYMid meet">
<metadata>
Created by potrace 1.14, written by Peter Selinger 2001-2017
</metadata>
<g transform="translate(0.000000,100.000000) scale(0.100000,-0.100000)"
fill="#000000" stroke="none">
<path d="M180 900 c-15 -15 -20 -33 -20 -79 0 -51 -3 -59 -21 -64 -41 -11 -14
-32 41 -32 56 0 82 21 41 32 -20 5 -22 11 -19 62 l3 56 295 0 295 0 0 -375 0
-375 -295 0 -295 0 -3 48 c-3 39 -6 47 -23 47 -16 0 -19 -7 -19 -50 0 -37 5
-55 20 -70 19 -19 33 -20 320 -20 287 0 301 1 320 20 19 19 20 33 20 400 0
367 -1 381 -20 400 -19 19 -33 20 -320 20 -287 0 -301 -1 -320 -20z"/>
<path d="M465 706 c-45 -19 -57 -39 -60 -102 -3 -42 1 -67 16 -95 10 -21 19
-45 19 -53 0 -9 -25 -28 -57 -43 -60 -29 -91 -67 -80 -96 6 -15 29 -17 207
-17 178 0 201 2 207 17 11 29 -20 67 -79 97 -63 31 -68 43 -42 91 24 43 28
129 8 160 -9 14 -22 25 -29 25 -7 0 -18 7 -25 15 -15 18 -45 19 -85 1z m73
-41 c46 -23 52 -70 18 -149 -31 -73 -21 -100 49 -131 91 -40 81 -45 -95 -45
-173 0 -186 5 -101 41 74 32 86 61 55 135 -22 51 -27 113 -12 131 7 9 21 19
33 23 11 5 20 9 21 9 0 1 15 -6 32 -14z"/>
<path d="M160 671 c0 -21 -6 -30 -21 -34 -41 -11 -14 -32 41 -32 55 0 82 21
41 32 -15 4 -21 13 -21 34 0 22 -5 29 -20 29 -15 0 -20 -7 -20 -29z"/>
<path d="M160 551 c0 -21 -6 -30 -21 -34 -41 -11 -14 -32 41 -32 55 0 82 21
41 32 -15 4 -21 13 -21 34 0 22 -5 29 -20 29 -15 0 -20 -7 -20 -29z"/>
<path d="M160 431 c0 -21 -6 -30 -21 -34 -41 -11 -14 -32 41 -32 55 0 82 21
41 32 -15 4 -21 13 -21 34 0 22 -5 29 -20 29 -15 0 -20 -7 -20 -29z"/>
<path d="M160 311 c0 -21 -6 -30 -21 -34 -41 -11 -14 -32 41 -32 55 0 82 21
41 32 -15 4 -21 13 -21 34 0 22 -5 29 -20 29 -15 0 -20 -7 -20 -29z"/>
</g>
</svg>
